<svg width="24" height="24" viewBox="0 0 24 24" fill="none" xmlns="http://www.w3.org/2000/svg">
<g clip-path="url(#clip0_1_285)">
<path d="M12.1 4.4C12 6.3 12.9 8.5 15.6 10.1C16.7 10.7 18.2 12.4 18.2 14.1C18.2 15.7 17.6 17.1 16.4 18.2C15.2 19.3 13.7 20 12 20C10.3 20 8.79998 19.4 7.59998 18.2C6.99998 17.6 6.59998 17 6.29998 16.3C6.09998 15.8 5.89998 15.2 5.89998 14.7L5.99998 14.8C6.49998 15.5 7.29998 15.8 8.09998 15.8C9.09998 15.8 9.69998 15.4 9.99998 15C10.7 14.3 10.6 13.3 10.6 13C10.6 12.8 10.6 12.5 10.6 12.2C10.6 12 10.5 11.8 10.5 11.5C10.5 11.3 10.4 11.2 10.4 11C10.3 10.6 10.2 10.3 10.2 9.9C10.2 9.8 10.2 9.6 10.2 9.5C10.2 9.4 10.2 9.3 10.2 9.1C10.2 8.9 10.2 8.7 10.2 8.5C10.2 8.3 10.2 8 10.2 7.8C10.3 6.5 10.6 5.6 11.2 5C11.5 4.7 11.7 4.5 12.1 4.4ZM14.2 1.8C13.9 1.8 13.6 1.8 13.3 1.8C13.1 1.8 12.9 1.8 12.7 1.9C11.5 2.1 10.5 2.6 9.69998 3.4C8.49998 4.6 8.09998 6.3 7.99998 7.6C7.99998 7.9 7.99998 8.2 7.99998 8.5C7.99998 8.8 7.99998 9 7.99998 9.2C7.99998 9.3 7.99998 9.4 7.99998 9.5C7.99998 9.7 7.99998 9.9 7.99998 10.1C7.99998 10.6 8.09998 11 8.19998 11.4C8.19998 11.6 8.29998 11.8 8.29998 11.9C8.29998 12.1 8.39998 12.3 8.39998 12.5C8.39998 12.7 8.49998 12.9 8.49998 13C8.49998 13.3 8.39998 13.4 8.39998 13.4C8.39998 13.4 8.29998 13.4 8.09998 13.4C7.89998 13.4 7.69998 13.3 7.49998 13.2C7.39998 13.1 7.39998 13.1 7.39998 13C7.29998 12.8 7.19998 12.6 7.09998 12.3C7.09998 12.2 7.09998 12.1 6.99998 12C6.99998 11.9 6.99998 11.8 6.99998 11.7C6.89998 11 6.89998 10.3 6.99998 9.9C6.99998 9.7 6.99998 9.6 6.89998 9.4C6.79998 9.4 6.59998 9.3 6.39998 9.3C6.19998 9.3 5.99998 9.3 5.79998 9.4C5.59998 9.5 5.39998 9.6 5.29998 9.8C5.09998 9.9 4.99998 10 4.89998 10.2C4.89998 10.2 4.89998 10.3 4.79998 10.3C4.09998 11.2 3.59998 12.7 3.59998 14.1C3.59998 15.2 3.79998 16.2 4.29998 17.2C4.69998 18.2 5.29998 19 6.09998 19.8C7.69998 21.4 9.79998 22.2 12 22.2C14.2 22.2 16.3 21.4 17.9 19.8C19.5 18.3 20.4 16.2 20.4 14.1C20.4 11.4 18.2 9 16.7 8.2C12.9 6 14.7 2.9 14.8 2.7C14.9 2.5 14.9 2.3 14.8 2.1C14.6 1.9 14.4 1.8 14.2 1.8Z" fill="black"/>
</g>
<defs>
<clipPath id="clip0_1_285">
<rect width="16.8" height="20.4" fill="white" transform="translate(3.59998 1.8)"/>
</clipPath>
</defs>
</svg>
