<svg width="24" height="24" viewBox="0 0 24 24" fill="none" xmlns="http://www.w3.org/2000/svg">
<path fill-rule="evenodd" clip-rule="evenodd" d="M11.8992 2.80627C13.2135 1.30668 15.6769 2.24762 15.6769 4.22859V9.72695H17.4087C19.2687 9.72695 20.2639 11.9131 19.0318 13.3132L19.0317 13.3133L12.0964 21.1922C12.0961 21.1926 12.0957 21.193 12.0954 21.1934C10.7811 22.6935 8.31737 21.7525 8.31737 19.7714V14.273H6.58558C4.72529 14.273 3.75081 12.0848 4.95702 10.693L4.96257 10.6866L4.96259 10.6867L11.8979 2.80774C11.8983 2.80725 11.8987 2.80676 11.8992 2.80627ZM13.4769 4.3435L6.67316 12.073H9.41737C10.0249 12.073 10.5174 12.5655 10.5174 13.173V19.6565L17.3211 11.9269H14.5769C13.9694 11.9269 13.4769 11.4345 13.4769 10.8269V4.3435Z" fill="black"/>
</svg>
